<svg width="200" height="200" viewBox="0 0 200 200" xmlns="http://www.w3.org/2000/svg">
  <!-- QR Code Background -->
  <rect width="200" height="200" fill="white"/>
  
  <!-- Corner squares -->
  <rect x="10" y="10" width="50" height="50" fill="black"/>
  <rect x="20" y="20" width="30" height="30" fill="white"/>
  <rect x="25" y="25" width="20" height="20" fill="black"/>
  
  <rect x="140" y="10" width="50" height="50" fill="black"/>
  <rect x="150" y="20" width="30" height="30" fill="white"/>
  <rect x="155" y="25" width="20" height="20" fill="black"/>
  
  <rect x="10" y="140" width="50" height="50" fill="black"/>
  <rect x="20" y="150" width="30" height="30" fill="white"/>
  <rect x="25" y="155" width="20" height="20" fill="black"/>
  
  <!-- QR Pattern dots -->
  <rect x="70" y="10" width="5" height="5" fill="black"/>
  <rect x="80" y="10" width="5" height="5" fill="black"/>
  <rect x="90" y="10" width="5" height="5" fill="black"/>
  <rect x="100" y="10" width="5" height="5" fill="black"/>
  <rect x="110" y="10" width="5" height="5" fill="black"/>
  <rect x="120" y="10" width="5" height="5" fill="black"/>
  
  <rect x="10" y="70" width="5" height="5" fill="black"/>
  <rect x="10" y="80" width="5" height="5" fill="black"/>
  <rect x="10" y="90" width="5" height="5" fill="black"/>
  <rect x="10" y="100" width="5" height="5" fill="black"/>
  <rect x="10" y="110" width="5" height="5" fill="black"/>
  <rect x="10" y="120" width="5" height="5" fill="black"/>
  
  <!-- Random pattern -->
  <rect x="70" y="70" width="5" height="5" fill="black"/>
  <rect x="80" y="75" width="5" height="5" fill="black"/>
  <rect x="85" y="70" width="5" height="5" fill="black"/>
  <rect x="95" y="80" width="5" height="5" fill="black"/>
  <rect x="105" y="75" width="5" height="5" fill="black"/>
  <rect x="115" y="85" width="5" height="5" fill="black"/>
  <rect x="125" y="70" width="5" height="5" fill="black"/>
  <rect x="135" y="80" width="5" height="5" fill="black"/>
  
  <rect x="75" y="95" width="5" height="5" fill="black"/>
  <rect x="85" y="105" width="5" height="5" fill="black"/>
  <rect x="95" y="95" width="5" height="5" fill="black"/>
  <rect x="105" y="110" width="5" height="5" fill="black"/>
  <rect x="115" y="100" width="5" height="5" fill="black"/>
  <rect x="125" y="115" width="5" height="5" fill="black"/>
  
  <!-- More pattern -->
  <rect x="70" y="125" width="5" height="5" fill="black"/>
  <rect x="80" y="135" width="5" height="5" fill="black"/>
  <rect x="90" y="130" width="5" height="5" fill="black"/>
  <rect x="100" y="140" width="5" height="5" fill="black"/>
  <rect x="110" y="135" width="5" height="5" fill="black"/>
  <rect x="120" y="145" width="5" height="5" fill="black"/>
  
  <rect x="140" y="70" width="5" height="5" fill="black"/>
  <rect x="150" y="80" width="5" height="5" fill="black"/>
  <rect x="160" y="75" width="5" height="5" fill="black"/>
  <rect x="170" y="85" width="5" height="5" fill="black"/>
  <rect x="180" y="70" width="5" height="5" fill="black"/>
  <rect x="185" y="80" width="5" height="5" fill="black"/>
  
  <!-- Center text -->
  <rect x="85" y="90" width="30" height="20" fill="white" stroke="black" stroke-width="1"/>
  <text x="100" y="102" text-anchor="middle" font-family="monospace" font-size="8" fill="black">UPI</text>
</svg>